HIERARCHY
ROOT Hips
{
 OFFSET 0.000000 0.000000 0.000000
 CHANNELS 6 Xposition Yposition Zposition Yrotation Xrotation Zrotation
 JOINT Chest
 {
  OFFSET 0.000000 9.585900 0.002600
  CHANNELS 3 Yrotation Xrotation Zrotation
  JOINT Chest2
  {
   OFFSET 0.000000 9.601200 -0.005300
   CHANNELS 3 Yrotation Xrotation Zrotation
   JOINT Chest3
   {
    OFFSET 0.000000 9.561800 0.000000
    CHANNELS 3 Yrotation Xrotation Zrotation
    JOINT Chest4
    {
     OFFSET 0.000000 9.552100 0.000000
     CHANNELS 3 Yrotation Xrotation Zrotation
     JOINT Neck
     {
      OFFSET 0.000000 14.453000 0.000000
      CHANNELS 3 Yrotation Xrotation Zrotation
      JOINT Head
      {
       OFFSET 0.000000 8.936500 -0.011300
       CHANNELS 3 Yrotation Xrotation Zrotation
       End Site
       {
        OFFSET 0.000000 17.073600 -0.006000
       }
      }
     }
     JOINT RightCollar
     {
      OFFSET -2.921100 9.558500 0.000000
      CHANNELS 3 Yrotation Xrotation Zrotation
      JOINT RightShoulder
      {
       OFFSET -13.519700 0.000000 0.000000
       CHANNELS 3 Yrotation Xrotation Zrotation
       JOINT RightElbow
       {
        OFFSET 0.000000 -29.696600 0.000000
        CHANNELS 3 Yrotation Xrotation Zrotation
        JOINT RightWrist
        {
         OFFSET 0.000000 -24.004700 0.000000
         CHANNELS 3 Yrotation Xrotation Zrotation
         End Site
         {
          OFFSET 0.000000 -17.728500 0.000000
         }
        }
       }
      }
     }
     JOINT LeftCollar
     {
      OFFSET 2.921100 9.558500 0.000000
      CHANNELS 3 Yrotation Xrotation Zrotation
      JOINT LeftShoulder
      {
       OFFSET 13.519700 0.000000 0.000000
       CHANNELS 3 Yrotation Xrotation Zrotation
       JOINT LeftElbow
       {
        OFFSET 0.000000 -29.696600 0.000000
        CHANNELS 3 Yrotation Xrotation Zrotation
        JOINT LeftWrist
        {
         OFFSET 0.000000 -24.004700 0.000000
         CHANNELS 3 Yrotation Xrotation Zrotation
         End Site
         {
          OFFSET 0.000000 -17.728500 0.000000
         }
        }
       }
      }
     }
    }
   }
  }
 }
 JOINT RightHip
 {
  OFFSET -7.771700 -0.012900 -0.001300
  CHANNELS 3 Yrotation Xrotation Zrotation
  JOINT RightKnee
  {
   OFFSET 0.000000 -40.869800 0.001200
   CHANNELS 3 Yrotation Xrotation Zrotation
   JOINT RightAnkle
   {
    OFFSET 0.000000 -39.717900 0.002100
    CHANNELS 3 Yrotation Xrotation Zrotation
    JOINT RightToe
    {
     OFFSET 0.000000 -4.965400 11.033500
     CHANNELS 3 Yrotation Xrotation Zrotation
     End Site
     {
      OFFSET 0.000000 -1.423100 5.872300
     }
    }
   }
  }
 }
 JOINT LeftHip
 {
  OFFSET 7.771700 -0.012900 -0.001300
  CHANNELS 3 Yrotation Xrotation Zrotation
  JOINT LeftKnee
  {
   OFFSET 0.000000 -40.869800 0.001200
   CHANNELS 3 Yrotation Xrotation Zrotation
   JOINT LeftAnkle
   {
    OFFSET 0.000000 -39.717900 0.002100
    CHANNELS 3 Yrotation Xrotation Zrotation
    JOINT LeftToe
    {
     OFFSET 0.000000 -4.965400 11.033500
     CHANNELS 3 Yrotation Xrotation Zrotation
     End Site
     {
      OFFSET 0.000000 -1.423100 5.872300
     }
    }
   }
  }
 }
}
MOTION
Frames: 12
Frame Time: 0.008333
0.000000 85.388000 0.000000 0.000000 -5.767877 0.000000 0.000000 11.653817 0.000000 0.000000 -5.885947 0.000000 0.000000 -0.000000 0.000000 0.000000 -0.000000 0.000000 0.000000 12.528835 0.000000 0.000000 0.711642 0.000000 0.000000 -0.000000 0.000000 0.000000 0.000000 -90.000000 0.000000 -2.309062 0.000000 0.000000 2.309062 0.000000 0.000000 -0.000000 0.000000 0.000000 -0.000000 90.000000 0.000000 -2.309062 0.000000 0.000000 2.309062 0.000000 0.000000 8.520406 0.000000 0.000000 1.905762 0.000000 -0.000000 -4.658285 0.000000 0.000000 -0.000000 0.000000 0.000000 8.520406 0.000000 0.000000 1.905762 0.000000 -0.000000 -4.658285 0.000000 0.000000 -0.000000 0.000000
-73.348970 48.171205 19.942023 172.669729 -30.144419 -0.067073 -0.167069 14.877067 1.786167 -0.225349 8.511726 1.526968 -0.246429 10.640334 1.908606 -0.223928 8.510265 1.525967 -0.348500 15.018994 -2.490299 0.282993 -7.856008 -4.527756 4.626251 3.365683 -5.283263 -2.056465 -15.767410 -7.736333 53.239175 -67.069989 -39.127297 13.926153 8.305655 -39.461879 -2.457962 0.660053 -3.069489 7.787537 -18.401527 -3.219885 -79.547648 -46.692735 54.208117 -9.578852 16.986766 37.005768 27.604397 -50.034274 -34.853419 -116.453558 70.855718 -104.991348 7.449284 -5.718351 3.977034 0.220580 -1.060996 0.094871 -5.098011 -54.531969 14.801608 93.922581 82.827433 91.893454 -5.596653 -10.057543 -2.721126 0.398297 0.874433 0.184218
-73.352072 48.170448 19.942345 172.666955 -30.144705 -0.054337 -0.168143 14.876665 1.776614 -0.224399 8.511073 1.525707 -0.245396 10.639425 1.907180 -0.224449 8.510993 1.525752 -0.337695 15.031588 -2.490466 0.276464 -7.845313 -4.519367 4.631587 3.356119 -5.284195 -2.060368 -15.755671 -7.739197 53.225712 -67.075652 -39.102729 13.923537 8.306947 -39.473287 -2.463518 0.657100 -3.068635 7.778951 -18.414013 -3.214086 -79.518457 -46.687098 54.181348 -9.574198 16.980213 37.002833 27.623190 -50.033007 -34.875575 -116.468958 70.856026 -105.007573 7.442550 -5.712358 3.980101 0.219598 -1.066800 0.093510 -5.079978 -54.532613 14.781332 93.914549 82.825245 91.881386 -5.597013 -10.055872 -2.717389 0.392809 0.874335 0.182611
-73.353714 48.168830 19.944316 172.663523 -30.136127 -0.050655 -0.160429 14.868040 1.780560 -0.220789 8.507640 1.523509 -0.247190 10.638754 1.903598 -0.222474 8.509271 1.523819 -0.334892 15.038695 -2.482482 0.269540 -7.837418 -4.515324 4.626628 3.349967 -5.276370 -2.062483 -15.744552 -7.741252 53.234181 -67.073172 -39.090722 13.912226 8.309951 -39.486955 -2.475159 0.659330 -3.063753 7.776834 -18.415207 -3.209162 -79.514973 -46.688323 54.175503 -9.573903 16.985943 36.996737 27.635124 -50.043877 -34.887858 -116.472910 70.853305 -105.009884 7.438628 -5.709310 3.978002 0.232269 -1.068307 0.093971 -5.074356 -54.543419 14.776982 93.906275 82.827836 91.872999 -5.591480 -10.052975 -2.716541 0.390175 0.874610 0.181605
-73.354186 48.167330 19.946171 172.655281 -30.130311 -0.050066 -0.149685 14.862034 1.787342 -0.222411 8.507162 1.521670 -0.239399 10.634844 1.905552 -0.205391 8.503691 1.521777 -0.354247 15.048104 -2.476255 0.266854 -7.829314 -4.511983 4.603244 3.351230 -5.269236 -2.060409 -15.736688 -7.750848 53.229401 -67.077517 -39.081185 13.903340 8.312675 -39.495237 -2.502182 0.667552 -3.059837 7.773286 -18.417130 -3.205592 -79.511568 -46.694809 54.172500 -9.577784 16.991321 36.996157 27.641371 -50.058163 -34.885575 -116.472503 70.850526 -105.012472 7.433805 -5.700895 3.974396 0.235812 -1.074143 0.097965 -5.069865 -54.552192 14.778464 93.912274 82.826776 91.882034 -5.582286 -10.051866 -2.715382 0.382243 0.874904 0.177801
-73.355063 48.166164 19.947476 172.647981 -30.128516 -0.045113 -0.140538 14.859913 1.788395 -0.220452 8.506609 1.522491 -0.234872 10.633429 1.904750 -0.198788 8.500703 1.517460 -0.362454 15.052164 -2.467653 0.270795 -7.826303 -4.503666 4.588584 3.352823 -5.260695 -2.053241 -15.731489 -7.760793 53.210105 -67.080552 -39.059642 13.899561 8.310392 -39.498013 -2.523016 0.668245 -3.052994 7.775277 -18.415044 -3.202950 -79.507237 -46.697452 54.169921 -9.576664 16.995193 36.992068 27.648019 -50.062700 -34.887624 -116.465926 70.845556 -105.008342 7.439504 -5.701173 3.972487 0.243924 -1.072650 0.100737 -5.057646 -54.556163 14.769517 93.909308 82.824622 91.883775 -5.578551 -10.051305 -2.714719 0.379238 0.875420 0.174584
-73.355691 48.165000 19.948774 172.647281 -30.127266 -0.042639 -0.133839 14.856035 1.788384 -0.217472 8.506510 1.522639 -0.230186 10.631110 1.903808 -0.203369 8.502249 1.518228 -0.354367 15.049390 -2.464445 0.278834 -7.834824 -4.482300 4.596338 3.348079 -5.259852 -2.051585 -15.720982 -7.766849 53.196566 -67.082335 -39.034979 13.890719 8.317932 -39.522203 -2.532969 0.664320 -3.053437 7.771658 -18.411417 -3.194851 -79.486982 -46.697951 54.158768 -9.581536 16.991828 36.983753 27.648725 -50.066625 -34.890047 -116.466268 70.844468 -105.012026 7.444479 -5.703295 3.971998 0.253688 -1.071620 0.102820 -5.051767 -54.559731 14.760923 93.892256 82.825648 91.871584 -5.574119 -10.048730 -2.717929 0.380031 0.875743 0.174346
-73.356290 48.164780 19.948512 172.648220 -30.136703 -0.037658 -0.129041 14.861933 1.785593 -0.209719 8.504330 1.519800 -0.228665 10.631931 1.902625 -0.208751 8.503858 1.521840 -0.347597 15.046293 -2.462059 0.271538 -7.841484 -4.461493 4.599246 3.343300 -5.257294 -2.047353 -15.710368 -7.772738 53.173675 -67.086748 -39.014271 13.894265 8.312071 -39.526741 -2.548687 0.654487 -3.053075 7.771822 -18.407939 -3.181833 -79.469419 -46.701130 54.143107 -9.580159 16.987549 36.982066 27.644892 -50.059451 -34.888292 -116.471235 70.841672 -105.020798 7.440794 -5.704506 3.975464 0.261886 -1.072685 0.102006 -5.043174 -54.551175 14.748273 93.889426 82.829752 91.872695 -5.575916 -10.048716 -2.720895 0.384502 0.875271 0.174218
-73.356512 48.163904 19.949407 172.654560 -30.138288 -0.036533 -0.133006 14.861672 1.783034 -0.209684 8.504536 1.519017 -0.223753 10.629030 1.900125 -0.207053 8.502690 1.519743 -0.338251 15.034337 -2.451617 0.258757 -7.831006 -4.452171 4.599288 3.339711 -5.255968 -2.040402 -15.699124 -7.774707 53.148425 -67.091749 -38.996376 13.894159 8.307057 -39.529231 -2.563273 0.655613 -3.048222 7.772903 -18.413205 -3.177918 -79.452521 -46.695105 54.130720 -9.578080 16.978172 36.976877 27.639343 -50.060987 -34.890678 -116.477616 70.836628 -105.032536 7.447837 -5.706328 3.974390 0.244215 -1.073209 0.105050 -5.042703 -54.549901 14.741409 93.851130 82.830037 91.837617 -5.587718 -10.047863 -2.724525 0.395617 0.878120 0.176198
-73.356161 48.163013 19.950338 172.650731 -30.139672 -0.032314 -0.125836 14.860788 1.782470 -0.201148 8.499464 1.517779 -0.221729 10.628261 1.898711 -0.203223 8.500518 1.517819 -0.348729 15.035527 -2.437972 0.256280 -7.831568 -4.444404 4.598287 3.332039 -5.260961 -2.040221 -15.680568 -7.771612 53.112293 -67.098995 -38.975162 13.897455 8.306430 -39.512656 -2.585485 0.661640 -3.040349 7.767202 -18.417498 -3.167964 -79.438162 -46.696374 54.121276 -9.578113 16.973124 36.972509 27.642760 -50.064620 -34.891389 -116.478795 70.830182 -105.039128 7.457136 -5.702400 3.973030 0.241755 -1.076906 0.107894 -5.038803 -54.548402 14.739188 93.842420 82.828711 91.829333 -5.590640 -10.049669 -2.725707 0.385199 0.880107 0.174849
-73.355657 48.161814 19.951710 172.643928 -30.137534 -0.027137 -0.116356 14.855112 1.780516 -0.202140 8.500865 1.518560 -0.215964 10.623180 1.894856 -0.206355 8.503723 1.521457 -0.351511 15.036279 -2.433673 0.247471 -7.847799 -4.421893 4.599976 3.329591 -5.264960 -2.046010 -15.674278 -7.765442 53.118279 -67.098739 -38.972843 13.896548 8.308855 -39.507498 -2.596102 0.662423 -3.042675 7.768969 -18.419010 -3.158843 -79.433177 -46.702781 54.119233 -9.585618 16.969407 36.965409 27.653306 -50.070727 -34.894965 -116.477294 70.823727 -105.041128 7.465677 -5.697583 3.969626 0.263483 -1.080689 0.112419 -5.032174 -54.549401 14.736723 93.821133 82.827791 91.806879 -5.586153 -10.054135 -2.724241 0.383931 0.885153 0.172750
-73.355211 48.160812 19.952557 172.643006 -30.138097 -0.024258 -0.116244 14.851932 1.775031 -0.199494 8.502108 1.520685 -0.211209 10.618465 1.889733 -0.205122 8.503096 1.524547 -0.356438 15.031611 -2.422634 0.213505 -7.874465 -4.368785 4.600213 3.329621 -5.269374 -2.040624 -15.668080 -7.764502 53.105161 -67.091135 -38.962845 13.899940 8.302542 -39.502239 -2.612821 0.666570 -3.044376 7.775891 -18.418303 -3.150174 -79.431135 -46.698283 54.115512 -9.583623 16.961264 36.966284 27.659036 -50.071774 -34.897773 -116.479002 70.819358 -105.043279 7.458817 -5.695597 3.974864 0.261825 -1.081248 0.109962 -5.028764 -54.550907 14.732110 93.822003 82.835304 91.809518 -5.575056 -10.049780 -2.725188 0.379433 0.882190 0.171622
